<svg width="255" height="86" viewBox="0 0 255 86" fill="none" xmlns="http://www.w3.org/2000/svg">
<path fill-rule="evenodd" clip-rule="evenodd" d="M65.5078 0C77.9375 0 86 8.0625 86 20.4922V65.5078C86 77.9375 77.9375 86 65.5078 86H20.4922C8.0625 86 0 77.9375 0 65.5078V20.4922C0 8.0625 8.0625 0 20.4922 0H65.5078Z" fill="#F0693A"/>
<path fill-rule="evenodd" clip-rule="evenodd" d="M60.56 60.9167C61.5416 60.9167 62.35 60.1138 62.35 59.1234V46.9433C62.35 46.8201 62.3376 46.6997 62.3139 46.5833H66.1709C67.0523 46.5833 67.7236 45.7992 67.5749 44.9306C67.1041 42.1811 66.0996 36.6486 65.1184 33.3908C65.0129 33.0404 64.8192 32.473 64.6115 31.9515C64.5864 31.8886 64.5612 31.8263 64.5361 31.7655C61.2104 23.0899 51.7447 14.3333 41.5667 14.3333C28.9009 14.3333 18.6333 24.9218 18.6333 37.9833C18.6333 45.5004 22.0341 52.1984 27.3356 56.5303V68.0965L49.7304 71.8251V60.9167H60.56Z" fill="white"/>
<path fill-rule="evenodd" clip-rule="evenodd" d="M35.475 20.0667C33.8185 20.0667 32.4486 21.3208 32.2698 22.9333H31.4121C29.1049 22.9333 27.2333 24.8061 27.2333 27.1162C27.2333 27.4016 27.262 27.6805 27.3167 27.95H26.8773C25.0991 27.95 23.65 29.3939 23.65 31.175C23.65 32.2431 24.1717 33.1921 24.9749 33.7794C23.3903 34.1529 22.2167 35.5725 22.2167 37.2667C22.2167 39.2417 23.8234 40.85 25.8054 40.85H29.2677C28.8933 41.3794 28.6667 42.0101 28.6667 42.6417C28.6667 44.0242 29.789 45.15 31.1735 45.15H35.1167V69.392L39.4167 70.1079V43C39.4081 42.8839 39.4167 42.7653 39.4167 42.6447V42.2833C39.4167 41.4917 40.0584 40.85 40.85 40.85H57.328C59.3153 40.85 60.9167 39.2457 60.9167 37.2667C60.9167 35.5762 59.7395 34.1543 58.1575 33.7798C58.9605 33.1931 59.4833 32.2449 59.4833 31.175C59.4833 29.5071 58.2111 28.1297 56.5816 27.9663C56.6353 27.6918 56.6621 27.4075 56.6591 27.1162C56.6357 24.8108 54.7458 22.9333 52.4379 22.9333H51.5802C51.4013 21.3253 50.0345 20.0667 48.375 20.0667C47.27 20.0667 46.2926 20.6247 45.7111 21.4749C45.2349 19.8346 43.7201 18.6333 41.925 18.6333C40.1329 18.6333 38.6153 19.8338 38.1387 21.4758C37.5579 20.6262 36.5815 20.0667 35.475 20.0667Z" fill="#F7B616"/>
<path d="M133.8 49.936C133.8 51.4293 133.864 52.56 133.992 53.328C134.12 54.096 134.376 54.7573 134.76 55.312C135.144 55.8667 135.741 56.5067 136.552 57.232L136.04 58H124.776L124.392 56.848C125.373 56.592 126.077 56.336 126.504 56.08C126.973 55.7813 127.272 55.3973 127.4 54.928C127.571 54.416 127.656 53.6693 127.656 52.688V43.728H116.328V49.936C116.328 51.4293 116.392 52.5813 116.52 53.392C116.648 54.16 116.883 54.8213 117.224 55.376C117.608 55.888 118.205 56.5067 119.016 57.232L118.568 58H107.304L106.92 56.848C108.328 56.464 109.224 56.0373 109.608 55.568C109.992 55.056 110.184 54.096 110.184 52.688V36.048C110.184 34 110.013 32.5707 109.672 31.76C109.373 30.9067 108.605 29.968 107.368 28.944L107.88 28.112H118.76L119.208 29.136C117.971 29.8613 117.181 30.544 116.84 31.184C116.499 31.7813 116.328 32.8693 116.328 34.448V41.936H127.656V36.048C127.656 34 127.485 32.5707 127.144 31.76C126.845 30.9067 126.077 29.968 124.84 28.944L125.352 28.112H136.232L136.744 29.136C135.507 29.8613 134.696 30.544 134.312 31.184C133.971 31.7813 133.8 32.8693 133.8 34.448V49.936ZM140.41 47.696C140.41 44.3253 141.37 41.6587 143.29 39.696C145.252 37.7333 147.898 36.752 151.226 36.752C154.554 36.752 157.199 37.7547 159.162 39.76C161.124 41.7227 162.106 44.368 162.106 47.696C162.106 51.024 161.124 53.6693 159.162 55.632C157.199 57.5947 154.554 58.576 151.226 58.576C147.898 58.576 145.252 57.5947 143.29 55.632C141.37 53.6693 140.41 51.024 140.41 47.696ZM155.642 47.824C155.642 44.9653 155.236 42.64 154.426 40.848C153.615 39.0133 152.591 38.096 151.354 38.096C149.988 38.096 148.879 38.992 148.026 40.784C147.172 42.5333 146.746 44.8373 146.746 47.696C146.746 50.5973 147.13 52.9013 147.898 54.608C148.708 56.3147 149.775 57.168 151.098 57.168C152.42 57.168 153.508 56.3147 154.362 54.608C155.215 52.8587 155.642 50.5973 155.642 47.824ZM172.651 54.352C172.651 55.632 173.056 56.272 173.867 56.272C174.677 56.272 175.467 55.952 176.235 55.312L176.747 55.952C175.253 57.7013 173.397 58.576 171.179 58.576C169.685 58.576 168.597 58.2347 167.915 57.552C167.232 56.8267 166.891 55.696 166.891 54.16V30.672C166.891 30.0747 166.613 29.776 166.059 29.776H164.011L163.819 29.136C164.629 28.368 165.675 27.7707 166.955 27.344C168.277 26.8747 169.579 26.64 170.859 26.64C171.413 26.64 171.84 26.768 172.139 27.024C172.48 27.2373 172.651 27.5573 172.651 27.984V54.352ZM178.16 47.696C178.16 44.3253 179.12 41.6587 181.04 39.696C183.002 37.7333 185.648 36.752 188.976 36.752C192.304 36.752 194.949 37.7547 196.912 39.76C198.874 41.7227 199.856 44.368 199.856 47.696C199.856 51.024 198.874 53.6693 196.912 55.632C194.949 57.5947 192.304 58.576 188.976 58.576C185.648 58.576 183.002 57.5947 181.04 55.632C179.12 53.6693 178.16 51.024 178.16 47.696ZM193.392 47.824C193.392 44.9653 192.986 42.64 192.176 40.848C191.365 39.0133 190.341 38.096 189.104 38.096C187.738 38.096 186.629 38.992 185.776 40.784C184.922 42.5333 184.496 44.8373 184.496 47.696C184.496 50.5973 184.88 52.9013 185.648 54.608C186.458 56.3147 187.525 57.168 188.848 57.168C190.17 57.168 191.258 56.3147 192.112 54.608C192.965 52.8587 193.392 50.5973 193.392 47.824ZM227.489 52.24C227.915 53.4347 228.385 54.3947 228.897 55.12C229.409 55.8027 230.198 56.5493 231.265 57.36L230.689 58H219.105L218.721 56.848L219.681 56.592C220.321 56.3787 220.769 56.1227 221.025 55.824C221.323 55.4827 221.473 55.0347 221.473 54.48C221.473 54.1387 221.238 53.264 220.769 51.856L219.489 48.08H209.569L209.057 49.68C208.417 51.6 208.097 53.0507 208.097 54.032C208.097 54.9707 208.267 55.824 208.609 56.592L209.057 57.36L208.481 58H201.441L200.992 56.848L201.953 56.592C202.977 56.2933 203.745 55.888 204.257 55.376C204.769 54.8213 205.259 53.8613 205.729 52.496L212.257 33.68C212.555 32.6133 212.705 31.8667 212.705 31.44C212.705 30.5013 212.022 29.84 210.657 29.456L209.953 29.264L210.401 28.112H219.105L227.489 52.24ZM218.849 46.288L214.497 33.296L210.209 46.288H218.849ZM232.978 56.848C233.959 56.592 234.663 56.336 235.09 56.08C235.559 55.7813 235.858 55.3973 235.986 54.928C236.157 54.416 236.242 53.6693 236.242 52.688V36.048C236.242 34 236.071 32.5707 235.73 31.76C235.431 30.9067 234.663 29.968 233.426 28.944L234.002 28.112H244.818L245.266 29.136C244.029 29.8613 243.239 30.544 242.898 31.184C242.557 31.7813 242.386 32.8693 242.386 34.448V50.192C242.386 52.1973 242.535 53.6267 242.834 54.48C243.175 55.2907 243.943 56.208 245.138 57.232L244.626 58H233.426L232.978 56.848Z" fill="#F0693A"/>
</svg>
